<svg xmlns="http://www.w3.org/2000/svg" viewBox="0 0 750 500"><g id="freepik--background-complete--inject-51"><path d="M60.52,96.89a2.67,2.67,0,0,1,2.79,0c.23.14.47.27.71.4l.74.38a2.63,2.63,0,0,1,1.55,2.3l.11,3.43,11.16-.35-.1-3.43a2.68,2.68,0,0,1,1.4-2.41,13.84,13.84,0,0,0,1.42-.87,2.66,2.66,0,0,1,2.77-.18l3,1.62L91.36,88l-3-1.61A2.66,2.66,0,0,1,87,83.93c0-.56,0-1.11,0-1.66a2.64,2.64,0,0,1,1.23-2.5L91.05,78l-5.89-9.49-2.93,1.81a2.63,2.63,0,0,1-2.77,0c-.23-.14-.47-.27-.71-.4s-.49-.26-.74-.37a2.66,2.66,0,0,1-1.55-2.31l-.11-3.43-11.16.34.11,3.42a2.67,2.67,0,0,1-1.4,2.41,16,16,0,0,0-1.42.88A2.68,2.68,0,0,1,59.7,71l-3-1.62-5.28,9.85,3,1.61a2.66,2.66,0,0,1,1.39,2.41c0,.56,0,1.12,0,1.67a2.64,2.64,0,0,1-1.23,2.5l-2.91,1.8,5.89,9.49Zm2.8-17.63a9.15,9.15,0,1,1,3.74,12.38A9.16,9.16,0,0,1,63.32,79.26Z" style="fill:#ebebeb"></path><path d="M619.69,232.73a1.87,1.87,0,0,1,.91,1.73c0,.19,0,.38,0,.58s0,.39,0,.58a1.87,1.87,0,0,1-.91,1.72l-2.08,1.2,3.91,6.78,2.08-1.2a1.85,1.85,0,0,1,1.95.06,10.23,10.23,0,0,0,1,.59,1.85,1.85,0,0,1,1,1.65v2.4h7.82v-2.4a1.87,1.87,0,0,1,1-1.65,9.19,9.19,0,0,0,1-.59,1.85,1.85,0,0,1,1.95-.06l2.08,1.2,3.91-6.78-2.09-1.21a1.84,1.84,0,0,1-.9-1.72c0-.19,0-.38,0-.57s0-.39,0-.58a1.87,1.87,0,0,1,.91-1.73l2.08-1.19-3.91-6.78-2.07,1.2a1.85,1.85,0,0,1-1.95-.07,10.29,10.29,0,0,0-1-.58,1.89,1.89,0,0,1-1-1.66v-2.39h-7.82v2.39a1.89,1.89,0,0,1-1,1.66,9.12,9.12,0,0,0-1,.58,1.87,1.87,0,0,1-2,.07l-2.07-1.2-3.91,6.78Zm11.81-4.11a6.41,6.41,0,1,1-6.41,6.42A6.42,6.42,0,0,1,631.5,228.62Z" style="fill:#ebebeb"></path><path d="M630.4,169.25a30.47,30.47,0,1,0,30.47-30.48A30.47,30.47,0,0,0,630.4,169.25Zm16.23,0a14.24,14.24,0,1,1,14.24,14.22A14.24,14.24,0,0,1,646.63,169.25Z" style="fill:#ebebeb"></path><polygon points="655.01 140.04 666.73 140.04 666.08 131.74 655.66 131.74 655.01 140.04" style="fill:#ebebeb"></polygon><polygon points="677.31 143.99 685.6 152.27 691.01 145.95 683.64 138.58 677.31 143.99" style="fill:#ebebeb"></polygon><polygon points="690.29 162.55 690.29 174.27 698.59 173.62 698.59 163.2 690.29 162.55" style="fill:#ebebeb"></polygon><polygon points="686.35 184.85 678.06 193.14 684.38 198.54 691.75 191.18 686.35 184.85" style="fill:#ebebeb"></polygon><polygon points="667.78 197.83 656.06 197.83 656.71 206.13 667.13 206.13 667.78 197.83" style="fill:#ebebeb"></polygon><polygon points="645.48 193.88 637.19 185.6 631.79 191.92 639.15 199.29 645.48 193.88" style="fill:#ebebeb"></polygon><polygon points="632.5 175.32 632.5 163.6 624.21 164.25 624.21 174.67 632.5 175.32" style="fill:#ebebeb"></polygon><polygon points="636.45 153.02 644.73 144.73 638.41 139.32 631.04 146.69 636.45 153.02" style="fill:#ebebeb"></polygon><path d="M117.12,283.3H105.78l-.54-6.84a30.28,30.28,0,0,1-11.32-4.32l-5.27,4.51-8-8L85,263.57a30.15,30.15,0,0,1-4.86-11.22l-6.87-.53V240.47l6.78-.54a30.46,30.46,0,0,1,4.56-11.1l-4.69-5.48,8-8L93.4,220a30.36,30.36,0,0,1,10.72-4.43l.6-7.68h11.34l.6,7.67a30.4,30.4,0,0,1,10.4,4.23l6.13-5.24,8,8-5.14,6a30.51,30.51,0,0,1,4.46,10.17l8.08.63v11.36l-7.73.59a30.51,30.51,0,0,1-4,10.6l5.07,5.92-8,8-5.58-4.75A30.43,30.43,0,0,1,117.69,276Zm-10.42-1h9.5l.55-7.09.36-.09a29.33,29.33,0,0,0,11-5l.32-.23,5.47,4.66,6.72-6.71-4.95-5.78.2-.31A29.56,29.56,0,0,0,140,250.81l.06-.39,7.59-.58v-9.5l-7.9-.62-.08-.36a29.45,29.45,0,0,0-4.6-10.5l-.22-.32,5-5.88-6.72-6.72-6,5.13-.31-.21a29.51,29.51,0,0,0-10.73-4.36l-.38-.07-.58-7.51h-9.5l-.58,7.51-.38.07a29.52,29.52,0,0,0-11,4.57l-.13.08h-.33L93,221,88,216.68l-6.72,6.72,4.59,5.36-.22.32a29.35,29.35,0,0,0-4.69,11.41l-.07.38-6.62.52v9.5l6.7.52.07.38a29.39,29.39,0,0,0,5,11.52l.22.32L82,268.58l6.72,6.71,5.13-4.39.31.2a29.32,29.32,0,0,0,11.64,4.44l.39.06Zm3.69-21.65a14.73,14.73,0,1,1,14.74-14.73A14.75,14.75,0,0,1,110.39,260.65Zm0-28.46a13.73,13.73,0,1,0,13.74,13.73A13.75,13.75,0,0,0,110.39,232.19Z" style="fill:#ebebeb"></path><path d="M113.27,381.56c-5.74.1-20.22.35-25.77.41l-8.69,0h-.45v-.45l0-11.19v-.5h.5l17.23.07c4.29,0,12.94.13,17.23.19h.25v.24l-.24,11.19Zm0,0L113,370.37l.24.24c-4.3.06-12.93.15-17.23.19l-17.23.07.5-.5,0,11.19-.45-.46,8.54,0c5.46.06,20.27.31,25.92.41Z" style="fill:#ebebeb"></path><path d="M94.05,395.67c-5.74.1-20.22.35-25.77.41l-8.69,0h-.46v-.45l0-11.19V384h.51l17.23.07c4.29,0,12.94.13,17.23.19h.24v.24l-.24,11.19Zm0,0-.24-11.19.24.24c-4.3.06-12.94.15-17.23.19L59.59,385l.5-.5L60,395.67l-.45-.46,8.53.05c5.46.06,20.28.31,25.93.41Z" style="fill:#ebebeb"></path><path d="M130.14,177.08c-5.74.1-20.21.35-25.76.41l-8.7,0h-.45v-.46l0-11.19v-.5h.5l17.23.07c4.29,0,12.94.13,17.23.19h.25v.24l-.24,11.19Zm0,0-.24-11.19.24.24c-4.29.06-12.93.16-17.23.19l-17.23.07.5-.5,0,11.19-.46-.45,8.54,0c5.46.06,20.27.31,25.92.41Z" style="fill:#ebebeb"></path><path d="M110.92,191.19c-5.74.1-20.22.35-25.77.41l-8.69.05H76v-.46L76,180v-.5h.5l17.23.07c4.29,0,12.94.13,17.23.19h.25V180l-.24,11.19Zm0,0L110.68,180l.24.24c-4.3.06-12.93.16-17.23.19l-17.23.07.5-.5,0,11.19-.46-.45,8.54,0c5.46.06,20.27.31,25.92.41Z" style="fill:#ebebeb"></path><rect x="114.91" y="180" width="34.46" height="11.19" style="fill:#ebebeb"></rect><rect x="640.07" y="384.48" width="34.46" height="11.19" style="fill:#ebebeb"></rect><rect x="640.07" y="43.24" width="34.46" height="11.19" style="fill:#ebebeb"></rect><path d="M693.75,68.54c-5.74.1-20.22.35-25.76.41l-8.7,0h-.45v-.46l-.05-11.19v-.5h.5l17.23.07c4.29,0,12.94.13,17.23.19H694v.23l-.24,11.19Zm0,0-.24-11.19.24.24c-4.3.07-12.93.16-17.23.2l-17.23.06.5-.5,0,11.19-.46-.45,8.54,0c5.46.07,20.27.32,25.92.41Z" style="fill:#ebebeb"></path><path d="M90.71,54.45c-5.74.1-20.22.34-25.77.41l-8.69,0h-.46v-.45l0-11.19v-.51h.5l17.23.06c4.29,0,12.94.13,17.23.19H91v.24l-.24,11.19Zm0,0-.24-11.19.24.24c-4.3.06-12.93.15-17.23.19l-17.23.06.5-.49,0,11.19L56.25,54l8.53,0c5.47.07,20.28.32,25.93.42Z" style="fill:#ebebeb"></path><rect x="408.81" y="80.44" width="34.46" height="11.19" transform="translate(852.07 172.07) rotate(180)" style="fill:#ebebeb"></rect><path d="M428,66.33c5.74-.1,20.22-.35,25.77-.41l8.69,0h.45v.46l0,11.19V78h-.5L445.26,78c-4.29,0-12.94-.13-17.23-.19h-.25v-.24L428,66.33Zm0,0,.24,11.19-.24-.24c4.3-.06,12.93-.15,17.23-.19L462.49,77l-.5.5,0-11.19.46.46L454,66.74c-5.46-.06-20.27-.31-25.92-.41Z" style="fill:#ebebeb"></path></g><g id="freepik--Floor--inject-51"><polygon points="50.72 441.6 131.79 441.36 212.86 441.27 375 441.11 537.14 441.27 618.21 441.36 699.28 441.6 618.21 441.85 537.14 441.94 375 442.1 212.86 441.94 131.79 441.85 50.72 441.6" style="fill:#263238"></polygon></g><g id="freepik--Device--inject-51"><rect x="68.63" y="419.29" width="612.74" height="22.32" style="fill:#c7c7c7"></rect><rect x="122.94" y="82.07" width="504.11" height="337.22" style="fill:#dbdbdb"></rect><rect x="126.61" y="86.18" width="496.79" height="328.99" style="fill:#263238"></rect><rect x="148.6" y="107.33" width="452.79" height="286.69" style="fill:#fff"></rect><rect x="148.6" y="107.33" width="452.79" height="11.03" style="fill:#455a64"></rect><path d="M159,112.85a2.09,2.09,0,1,1-2.09-2.09A2.09,2.09,0,0,1,159,112.85Z" style="fill:#c7c7c7"></path><path d="M167.51,112.85a2.09,2.09,0,1,1-2.08-2.09A2.08,2.08,0,0,1,167.51,112.85Z" style="fill:#fff"></path><path d="M176,112.85a2.09,2.09,0,1,1-2.09-2.09A2.09,2.09,0,0,1,176,112.85Z" style="fill:#407BFF"></path><rect x="329.98" y="213.03" width="90.04" height="90.04" style="fill:#407BFF"></rect><rect x="408.92" y="198.93" width="3.14" height="11.33" transform="translate(820.99 409.19) rotate(180)" style="fill:#c7c7c7"></rect><rect x="400.05" y="198.93" width="3.14" height="11.33" transform="translate(803.24 409.19) rotate(180)" style="fill:#c7c7c7"></rect><rect x="391.18" y="198.93" width="3.14" height="11.33" transform="translate(785.49 409.19) rotate(180)" style="fill:#c7c7c7"></rect><rect x="382.3" y="198.93" width="3.14" height="11.33" transform="translate(767.75 409.19) rotate(180)" style="fill:#c7c7c7"></rect><rect x="373.43" y="198.93" width="3.14" height="11.33" transform="translate(750 409.19) rotate(180)" style="fill:#c7c7c7"></rect><rect x="364.56" y="198.93" width="3.14" height="11.33" transform="translate(732.25 409.19) rotate(180)" style="fill:#c7c7c7"></rect><rect x="355.68" y="198.93" width="3.14" height="11.33" transform="translate(714.51 409.19) rotate(180)" style="fill:#c7c7c7"></rect><rect x="346.81" y="198.93" width="3.14" height="11.33" transform="translate(696.76 409.19) rotate(180)" style="fill:#c7c7c7"></rect><rect x="337.94" y="198.93" width="3.14" height="11.33" transform="translate(679.01 409.19) rotate(180)" style="fill:#c7c7c7"></rect><rect x="336.88" y="208.77" width="5.25" height="4.27" transform="translate(679.01 421.8) rotate(180)" style="fill:#407BFF"></rect><rect x="336.88" y="208.77" width="5.25" height="4.27" transform="translate(679.01 421.8) rotate(180)" style="opacity:0.1"></rect><rect x="345.76" y="208.77" width="5.25" height="4.27" transform="translate(696.76 421.8) rotate(180)" style="fill:#407BFF"></rect><rect x="345.76" y="208.77" width="5.25" height="4.27" transform="translate(696.76 421.8) rotate(180)" style="opacity:0.1"></rect><rect x="354.63" y="208.77" width="5.25" height="4.27" transform="translate(714.51 421.8) rotate(180)" style="fill:#407BFF"></rect><rect x="354.63" y="208.77" width="5.25" height="4.27" transform="translate(714.51 421.8) rotate(180)" style="opacity:0.1"></rect><rect x="363.5" y="208.77" width="5.25" height="4.27" transform="translate(732.25 421.8) rotate(180)" style="fill:#407BFF"></rect><rect x="363.5" y="208.77" width="5.25" height="4.27" transform="translate(732.25 421.8) rotate(180)" style="opacity:0.1"></rect><rect x="372.38" y="208.77" width="5.25" height="4.27" transform="translate(750 421.8) rotate(180)" style="fill:#407BFF"></rect><rect x="372.38" y="208.77" width="5.25" height="4.27" transform="translate(750 421.8) rotate(180)" style="opacity:0.1"></rect><rect x="381.25" y="208.77" width="5.25" height="4.27" transform="translate(767.75 421.8) rotate(180)" style="fill:#407BFF"></rect><rect x="381.25" y="208.77" width="5.25" height="4.27" transform="translate(767.75 421.8) rotate(180)" style="opacity:0.1"></rect><rect x="390.12" y="208.77" width="5.25" height="4.27" transform="translate(785.49 421.8) rotate(180)" style="fill:#407BFF"></rect><rect x="390.12" y="208.77" width="5.25" height="4.27" transform="translate(785.49 421.8) rotate(180)" style="opacity:0.1"></rect><rect x="399" y="208.77" width="5.25" height="4.27" transform="translate(803.24 421.8) rotate(180)" style="fill:#407BFF"></rect><rect x="399" y="208.77" width="5.25" height="4.27" transform="translate(803.24 421.8) rotate(180)" style="opacity:0.1"></rect><rect x="407.87" y="208.77" width="5.25" height="4.27" transform="translate(820.99 421.8) rotate(180)" style="fill:#407BFF"></rect><rect x="407.87" y="208.77" width="5.25" height="4.27" transform="translate(820.99 421.8) rotate(180)" style="opacity:0.1"></rect><rect x="426.89" y="287.88" width="3.14" height="11.33" transform="translate(134.91 722) rotate(-90)" style="fill:#c7c7c7"></rect><rect x="426.89" y="279.01" width="3.14" height="11.33" transform="translate(143.78 713.13) rotate(-90)" style="fill:#c7c7c7"></rect><rect x="426.89" y="270.13" width="3.14" height="11.33" transform="translate(152.66 704.26) rotate(-90)" style="fill:#c7c7c7"></rect><rect x="426.89" y="261.26" width="3.14" height="11.33" transform="translate(161.53 695.38) rotate(-90)" style="fill:#c7c7c7"></rect><rect x="426.89" y="252.39" width="3.14" height="11.33" transform="translate(170.4 686.51) rotate(-90)" style="fill:#c7c7c7"></rect><rect x="426.89" y="243.51" width="3.14" height="11.33" transform="translate(179.28 677.63) rotate(-90)" style="fill:#c7c7c7"></rect><rect x="426.89" y="234.64" width="3.14" height="11.33" transform="translate(188.15 668.76) rotate(-90)" style="fill:#c7c7c7"></rect><rect x="426.89" y="225.77" width="3.14" height="11.33" transform="translate(197.03 659.89) rotate(-90)" style="fill:#c7c7c7"></rect><rect x="426.89" y="216.89" width="3.14" height="11.33" transform="translate(205.9 651.01) rotate(-90)" style="fill:#c7c7c7"></rect><rect x="419.53" y="220.42" width="5.25" height="4.27" transform="translate(199.6 644.71) rotate(-90)" style="fill:#407BFF"></rect><rect x="419.53" y="220.42" width="5.25" height="4.27" transform="translate(199.6 644.71) rotate(-90)" style="opacity:0.1"></rect><rect x="419.53" y="229.3" width="5.25" height="4.27" transform="translate(190.72 653.58) rotate(-90)" style="fill:#407BFF"></rect><rect x="419.53" y="229.3" width="5.25" height="4.27" transform="translate(190.72 653.58) rotate(-90)" style="opacity:0.1"></rect><rect x="419.53" y="238.17" width="5.25" height="4.27" transform="translate(181.85 662.46) rotate(-90)" style="fill:#407BFF"></rect><rect x="419.53" y="238.17" width="5.25" height="4.27" transform="translate(181.85 662.46) rotate(-90)" style="opacity:0.1"></rect><rect x="419.53" y="247.05" width="5.25" height="4.27" transform="translate(172.97 671.33) rotate(-90)" style="fill:#407BFF"></rect><rect x="419.53" y="247.05" width="5.25" height="4.27" transform="translate(172.97 671.33) rotate(-90)" style="opacity:0.1"></rect><rect x="419.53" y="255.92" width="5.25" height="4.27" transform="translate(164.1 680.21) rotate(-90)" style="fill:#407BFF"></rect><rect x="419.53" y="255.92" width="5.25" height="4.27" transform="translate(164.1 680.21) rotate(-90)" style="opacity:0.1"></rect><rect x="419.53" y="264.79" width="5.25" height="4.27" transform="translate(155.23 689.08) rotate(-90)" style="fill:#407BFF"></rect><rect x="419.53" y="264.79" width="5.25" height="4.27" transform="translate(155.23 689.08) rotate(-90)" style="opacity:0.1"></rect><rect x="419.53" y="273.67" width="5.25" height="4.27" transform="translate(146.35 697.95) rotate(-90)" style="fill:#407BFF"></rect><rect x="419.53" y="273.67" width="5.25" height="4.27" transform="translate(146.35 697.95) rotate(-90)" style="opacity:0.1"></rect><rect x="419.53" y="282.54" width="5.25" height="4.27" transform="translate(137.48 706.83) rotate(-90)" style="fill:#407BFF"></rect><rect x="419.53" y="282.54" width="5.25" height="4.27" transform="translate(137.48 706.83) rotate(-90)" style="opacity:0.1"></rect><rect x="419.53" y="291.41" width="5.25" height="4.27" transform="translate(128.61 715.7) rotate(-90)" style="fill:#407BFF"></rect><rect x="419.53" y="291.41" width="5.25" height="4.27" transform="translate(128.61 715.7) rotate(-90)" style="opacity:0.1"></rect><rect x="337.94" y="305.84" width="3.14" height="11.33" style="fill:#c7c7c7"></rect><rect x="346.81" y="305.84" width="3.14" height="11.33" style="fill:#c7c7c7"></rect><rect x="355.68" y="305.84" width="3.14" height="11.33" style="fill:#c7c7c7"></rect><rect x="364.56" y="305.84" width="3.14" height="11.33" style="fill:#c7c7c7"></rect><rect x="373.43" y="305.84" width="3.14" height="11.33" style="fill:#c7c7c7"></rect><rect x="382.3" y="305.84" width="3.14" height="11.33" style="fill:#c7c7c7"></rect><rect x="391.18" y="305.84" width="3.14" height="11.33" style="fill:#c7c7c7"></rect><rect x="400.05" y="305.84" width="3.14" height="11.33" style="fill:#c7c7c7"></rect><rect x="408.92" y="305.84" width="3.14" height="11.33" style="fill:#c7c7c7"></rect><rect x="407.87" y="303.07" width="5.25" height="4.27" style="fill:#407BFF"></rect><rect x="407.87" y="303.07" width="5.25" height="4.27" style="opacity:0.1"></rect><rect x="399" y="303.07" width="5.25" height="4.27" style="fill:#407BFF"></rect><rect x="399" y="303.07" width="5.25" height="4.27" style="opacity:0.1"></rect><rect x="390.12" y="303.07" width="5.25" height="4.27" style="fill:#407BFF"></rect><rect x="390.12" y="303.07" width="5.25" height="4.27" style="opacity:0.1"></rect><rect x="381.25" y="303.07" width="5.25" height="4.27" style="fill:#407BFF"></rect><rect x="381.25" y="303.07" width="5.25" height="4.27" style="opacity:0.1"></rect><rect x="372.38" y="303.07" width="5.25" height="4.27" style="fill:#407BFF"></rect><rect x="372.38" y="303.07" width="5.25" height="4.27" style="opacity:0.1"></rect><rect x="363.5" y="303.07" width="5.25" height="4.27" style="fill:#407BFF"></rect><rect x="363.5" y="303.07" width="5.25" height="4.27" style="opacity:0.1"></rect><rect x="354.63" y="303.07" width="5.25" height="4.27" style="fill:#407BFF"></rect><rect x="354.63" y="303.07" width="5.25" height="4.27" style="opacity:0.1"></rect><rect x="345.76" y="303.07" width="5.25" height="4.27" style="fill:#407BFF"></rect><rect x="345.76" y="303.07" width="5.25" height="4.27" style="opacity:0.1"></rect><rect x="336.88" y="303.07" width="5.25" height="4.27" style="fill:#407BFF"></rect><rect x="336.88" y="303.07" width="5.25" height="4.27" style="opacity:0.1"></rect><rect x="319.97" y="216.83" width="3.14" height="11.33" transform="translate(544.04 -99.04) rotate(90)" style="fill:#c7c7c7"></rect><rect x="319.97" y="225.71" width="3.14" height="11.33" transform="translate(552.92 -90.17) rotate(90)" style="fill:#c7c7c7"></rect><rect x="319.97" y="234.58" width="3.14" height="11.33" transform="translate(561.79 -81.3) rotate(90)" style="fill:#c7c7c7"></rect><rect x="319.97" y="243.45" width="3.14" height="11.33" transform="translate(570.66 -72.42) rotate(90)" style="fill:#c7c7c7"></rect><rect x="319.97" y="252.33" width="3.14" height="11.33" transform="translate(579.54 -63.55) rotate(90)" style="fill:#c7c7c7"></rect><rect x="319.97" y="261.2" width="3.14" height="11.33" transform="translate(588.41 -54.68) rotate(90)" style="fill:#c7c7c7"></rect><rect x="319.97" y="270.08" width="3.14" height="11.33" transform="translate(597.28 -45.8) rotate(90)" style="fill:#c7c7c7"></rect><rect x="319.97" y="278.95" width="3.14" height="11.33" transform="translate(606.16 -36.93) rotate(90)" style="fill:#c7c7c7"></rect><rect x="319.97" y="287.82" width="3.14" height="11.33" transform="translate(615.03 -28.06) rotate(90)" style="fill:#c7c7c7"></rect><rect x="325.22" y="291.35" width="5.25" height="4.27" transform="translate(621.33 -34.36) rotate(90)" style="fill:#407BFF"></rect><rect x="325.22" y="291.35" width="5.25" height="4.27" transform="translate(621.33 -34.36) rotate(90)" style="opacity:0.1"></rect><rect x="325.22" y="282.48" width="5.25" height="4.27" transform="translate(612.46 -43.23) rotate(90)" style="fill:#407BFF"></rect><rect x="325.22" y="282.48" width="5.25" height="4.27" transform="translate(612.46 -43.23) rotate(90)" style="opacity:0.1"></rect><rect x="325.22" y="273.61" width="5.25" height="4.27" transform="translate(603.59 -52.11) rotate(90)" style="fill:#407BFF"></rect><rect x="325.22" y="273.61" width="5.25" height="4.27" transform="translate(603.59 -52.11) rotate(90)" style="opacity:0.1"></rect><rect x="325.22" y="264.73" width="5.25" height="4.27" transform="translate(594.72 -60.97) rotate(90)" style="fill:#407BFF"></rect><rect x="325.22" y="264.73" width="5.25" height="4.27" transform="translate(594.72 -60.97) rotate(90)" style="opacity:0.1"></rect><rect x="325.22" y="255.86" width="5.25" height="4.27" transform="translate(585.84 -69.85) rotate(90)" style="fill:#407BFF"></rect><rect x="325.22" y="255.86" width="5.25" height="4.27" transform="translate(585.84 -69.85) rotate(90)" style="opacity:0.1"></rect><rect x="325.22" y="246.99" width="5.25" height="4.27" transform="translate(576.97 -78.73) rotate(90)" style="fill:#407BFF"></rect><rect x="325.22" y="246.99" width="5.25" height="4.27" transform="translate(576.97 -78.73) rotate(90)" style="opacity:0.1"></rect><rect x="325.22" y="238.11" width="5.25" height="4.27" transform="translate(568.09 -87.6) rotate(90)" style="fill:#407BFF"></rect><rect x="325.22" y="238.11" width="5.25" height="4.27" transform="translate(568.09 -87.6) rotate(90)" style="opacity:0.1"></rect><rect x="325.22" y="229.24" width="5.25" height="4.27" transform="translate(559.22 -96.47) rotate(90)" style="fill:#407BFF"></rect><rect x="325.22" y="229.24" width="5.25" height="4.27" transform="translate(559.22 -96.47) rotate(90)" style="opacity:0.1"></rect><rect x="325.22" y="220.37" width="5.25" height="4.27" transform="translate(550.35 -105.35) rotate(90)" style="fill:#407BFF"></rect><rect x="325.22" y="220.37" width="5.25" height="4.27" transform="translate(550.35 -105.35) rotate(90)" style="opacity:0.1"></rect><path d="M339.7,220.47a3.14,3.14,0,1,1-3.14-3.14A3.15,3.15,0,0,1,339.7,220.47Z" style="opacity:0.1"></path><polygon points="399.26 280.08 350.74 280.08 350.74 265.14 353.88 265.14 353.88 276.94 396.12 276.94 396.12 265.9 399.26 265.9 399.26 280.08" style="fill:#fff"></polygon><rect x="367.55" y="236.02" width="14.91" height="19.18" transform="translate(750 491.22) rotate(180)" style="fill:#fff"></rect><polygon points="390.07 255.2 359.93 255.2 375 270.78 390.07 255.2" style="fill:#fff"></polygon><polygon points="478.5 258.43 434.12 258.43 434.12 257.68 478.25 257.68 519.12 227.74 555.18 227.74 555.18 228.49 519.36 228.49 478.5 258.43" style="fill:#dbdbdb"></polygon><path d="M557.79,231.15a3,3,0,1,1,3-3A3,3,0,0,1,557.79,231.15Zm0-5.33a2.29,2.29,0,1,0,2.29,2.29A2.29,2.29,0,0,0,557.79,225.82Z" style="fill:#dbdbdb"></path><polygon points="473.56 249.68 434.12 249.68 434.12 248.93 473.31 248.93 514.18 218.99 534.18 218.99 534.18 219.74 514.42 219.74 473.56 249.68" style="fill:#dbdbdb"></polygon><path d="M536.79,222.4a3,3,0,1,1,3-3A3,3,0,0,1,536.79,222.4Zm0-5.32a2.29,2.29,0,1,0,2.29,2.28A2.28,2.28,0,0,0,536.79,217.08Z" style="fill:#dbdbdb"></path><rect x="434.12" y="266.51" width="89.9" height="0.75" style="fill:#dbdbdb"></rect><path d="M526.68,269.92a3,3,0,1,1,3-3A3,3,0,0,1,526.68,269.92Zm0-5.32a2.29,2.29,0,1,0,2.28,2.29A2.3,2.3,0,0,0,526.68,264.6Z" style="fill:#dbdbdb"></path><polygon points="583.03 296.5 504.2 296.5 504.12 296.46 465.86 276.18 434.12 276.18 434.12 275.43 466.05 275.43 504.39 295.75 583.03 295.75 583.03 296.5" style="fill:#dbdbdb"></polygon><path d="M585.69,299.17a3,3,0,1,1,3-3A3,3,0,0,1,585.69,299.17Zm0-5.33a2.29,2.29,0,1,0,2.29,2.29A2.29,2.29,0,0,0,585.69,293.84Z" style="fill:#dbdbdb"></path><polygon points="549.51 309.01 504.15 309.01 504.06 308.96 461.76 285.05 434.12 285.05 434.12 284.3 461.96 284.3 462.04 284.35 504.34 308.26 549.51 308.26 549.51 309.01" style="fill:#dbdbdb"></polygon><path d="M552.17,311.67a3,3,0,1,1,3-3A3,3,0,0,1,552.17,311.67Zm0-5.32a2.29,2.29,0,1,0,2.29,2.29A2.29,2.29,0,0,0,552.17,306.35Z" style="fill:#dbdbdb"></path><polygon points="315.88 249.5 262.49 249.5 262.39 249.42 221.62 219.55 185.81 219.55 185.81 218.8 221.87 218.8 221.97 218.88 262.73 248.75 315.88 248.75 315.88 249.5" style="fill:#dbdbdb"></polygon><path d="M183.19,222.21a3,3,0,1,1,3-3A3,3,0,0,1,183.19,222.21Zm0-5.32a2.29,2.29,0,1,0,2.29,2.29A2.29,2.29,0,0,0,183.19,216.89Z" style="fill:#dbdbdb"></path><polygon points="315.88 240.62 267.43 240.62 267.33 240.55 226.56 210.68 206.81 210.68 206.81 209.93 226.81 209.93 226.91 210 267.67 239.87 315.88 239.87 315.88 240.62" style="fill:#dbdbdb"></polygon><path d="M204.19,213.34a3,3,0,1,1,3-3A3,3,0,0,1,204.19,213.34Zm0-5.32a2.29,2.29,0,1,0,2.29,2.28A2.28,2.28,0,0,0,204.19,208Z" style="fill:#dbdbdb"></path><rect x="166.97" y="257.68" width="148.91" height="0.75" style="fill:#dbdbdb"></rect><path d="M164.31,261.09a3,3,0,1,1,3-3A3,3,0,0,1,164.31,261.09Zm0-5.32a2.29,2.29,0,1,0,2.28,2.28A2.29,2.29,0,0,0,164.31,255.77Z" style="fill:#dbdbdb"></path><polygon points="236.78 287.57 217.96 287.57 217.96 286.82 236.6 286.82 274.94 266.49 315.88 266.49 315.88 267.24 275.12 267.24 236.78 287.57" style="fill:#dbdbdb"></polygon><path d="M215.29,290.23a3,3,0,1,1,3-3A3,3,0,0,1,215.29,290.23Zm0-5.32a2.29,2.29,0,1,0,2.29,2.29A2.29,2.29,0,0,0,215.29,284.91Z" style="fill:#dbdbdb"></path><polygon points="236.84 300.08 191.47 300.08 191.47 299.33 236.64 299.33 279.03 275.37 315.88 275.37 315.88 276.12 279.23 276.12 236.84 300.08" style="fill:#dbdbdb"></polygon><path d="M188.81,302.74a3,3,0,1,1,3-3A3,3,0,0,1,188.81,302.74Zm0-5.32a2.29,2.29,0,1,0,2.29,2.29A2.29,2.29,0,0,0,188.81,297.42Z" style="fill:#dbdbdb"></path><polygon points="384.28 198.93 383.53 198.93 383.53 178.54 383.61 178.44 401.19 154.45 401.19 147.62 401.94 147.62 401.94 154.69 401.86 154.79 384.28 178.78 384.28 198.93" style="fill:#dbdbdb"></polygon><path d="M401.56,147.89a3,3,0,1,1,3-3A3,3,0,0,1,401.56,147.89Zm0-5.32a2.29,2.29,0,1,0,2.29,2.28A2.28,2.28,0,0,0,401.56,142.57Z" style="fill:#dbdbdb"></path><polygon points="393.16 198.93 392.41 198.93 392.41 183.48 392.48 183.38 413.72 154.39 413.72 140.74 414.47 140.74 414.47 154.64 414.4 154.74 393.16 183.72 393.16 198.93" style="fill:#dbdbdb"></polygon><path d="M414.09,141.11a3,3,0,1,1,3-3A3,3,0,0,1,414.09,141.11Zm0-5.32a2.29,2.29,0,1,0,2.29,2.29A2.29,2.29,0,0,0,414.09,135.79Z" style="fill:#dbdbdb"></path><rect x="374.66" y="158.15" width="0.75" height="40.78" style="fill:#dbdbdb"></rect><path d="M375,158.53a3,3,0,1,1,3-3A3,3,0,0,1,375,158.53Zm0-5.32a2.29,2.29,0,1,0,2.28,2.28A2.29,2.29,0,0,0,375,153.21Z" style="fill:#dbdbdb"></path><polygon points="366.54 198.93 365.79 198.93 365.79 191.18 352.18 165.52 352.18 141.3 352.93 141.3 352.93 165.33 366.54 190.99 366.54 198.93" style="fill:#dbdbdb"></polygon><path d="M352.56,141.41a3,3,0,1,1,3-3A3,3,0,0,1,352.56,141.41Zm0-5.32a2.29,2.29,0,1,0,2.28,2.29A2.3,2.3,0,0,0,352.56,136.09Z" style="fill:#dbdbdb"></path><polygon points="357.66 198.93 356.91 198.93 356.91 195.28 337.37 160.71 337.37 153.86 338.12 153.86 338.12 160.52 357.66 195.08 357.66 198.93" style="fill:#dbdbdb"></polygon><path d="M337.75,154.06a3,3,0,1,1,3-3A3,3,0,0,1,337.75,154.06Zm0-5.32A2.29,2.29,0,1,0,340,151,2.3,2.3,0,0,0,337.75,148.74Z" style="fill:#dbdbdb"></path><path d="M467.74,358.52H282.26v-16H467.74Zm-184.48-1H466.74v-14H283.26Z" style="fill:#dbdbdb"></path><rect x="287.1" y="346.49" width="107.33" height="8.05" style="fill:#407BFF"></rect><polygon points="298.69 354.55 293.2 354.55 287.1 346.49 292.6 346.49 298.69 354.55" style="fill:#fff;opacity:0.2"></polygon><polygon points="310.28 354.55 304.79 354.55 298.69 346.49 304.19 346.49 310.28 354.55" style="fill:#fff;opacity:0.2"></polygon><polygon points="321.87 354.55 316.38 354.55 310.28 346.49 315.78 346.49 321.87 354.55" style="fill:#fff;opacity:0.2"></polygon><polygon points="333.46 354.55 327.97 354.55 321.87 346.49 327.37 346.49 333.46 354.55" style="fill:#fff;opacity:0.2"></polygon><polygon points="345.05 354.55 339.56 354.55 333.46 346.49 338.96 346.49 345.05 354.55" style="fill:#fff;opacity:0.2"></polygon><polygon points="356.64 354.55 351.15 354.55 345.05 346.49 350.55 346.49 356.64 354.55" style="fill:#fff;opacity:0.2"></polygon><polygon points="368.23 354.55 362.74 354.55 356.64 346.49 362.14 346.49 368.23 354.55" style="fill:#fff;opacity:0.2"></polygon><polygon points="379.82 354.55 374.33 354.55 368.23 346.49 373.73 346.49 379.82 354.55" style="fill:#fff;opacity:0.2"></polygon><polygon points="391.41 354.55 385.92 354.55 379.82 346.49 385.32 346.49 391.41 354.55" style="fill:#fff;opacity:0.2"></polygon><polygon points="394.44 346.49 394.44 350.49 391.41 346.49 394.44 346.49" style="fill:#fff;opacity:0.2"></polygon><path d="M358.16,337a2.6,2.6,0,0,1-2.6-2.6V331.2a.49.49,0,0,1,.5-.49.49.49,0,0,1,.5.49v3.21a1.61,1.61,0,0,0,3.21,0V331.2a.5.5,0,0,1,1,0v3.21A2.6,2.6,0,0,1,358.16,337Z" style="fill:#c7c7c7"></path><path d="M365,334.56h-1.11v1.95a.5.5,0,0,1-1,0V331.2a.49.49,0,0,1,.5-.49H365a1.93,1.93,0,1,1,0,3.85Zm-1.11-1H365a.93.93,0,1,0,0-1.86h-1.11Z" style="fill:#c7c7c7"></path><path d="M368.13,336.51V331.2a.48.48,0,0,1,.49-.49h1.06a3.15,3.15,0,1,1,0,6.3h-1.06A.49.49,0,0,1,368.13,336.51Zm1-.5h.55a2.16,2.16,0,0,0,0-4.31h-.55Z" style="fill:#c7c7c7"></path><path d="M377.23,335.52H375l-.44,1.17a.51.51,0,0,1-.47.32.47.47,0,0,1-.17,0,.52.52,0,0,1-.3-.65l2-5.3a.52.52,0,0,1,.48-.32.51.51,0,0,1,.48.32l2,5.3a.52.52,0,0,1-.3.65.47.47,0,0,1-.17,0,.48.48,0,0,1-.46-.32Zm-.37-1-.73-1.93-.73,1.93Z" style="fill:#c7c7c7"></path><path d="M382.78,331.7h-1.43v4.81a.5.5,0,1,1-1,0V331.7h-1.42a.5.5,0,0,1-.5-.5.49.49,0,0,1,.5-.49h3.84a.49.49,0,0,1,.5.49A.51.51,0,0,1,382.78,331.7Z" style="fill:#c7c7c7"></path><path d="M384.76,336.51V331.2a.48.48,0,0,1,.49-.49h2.95a.49.49,0,0,1,.49.49.5.5,0,0,1-.49.5h-2.44v1.65h2.1a.51.51,0,0,1,.49.5.49.49,0,0,1-.49.5h-2.1V336h2.44a.5.5,0,0,1,.49.5.51.51,0,0,1-.49.5h-2.95A.5.5,0,0,1,384.76,336.51Z" style="fill:#c7c7c7"></path><path d="M390.56,335.73a.67.67,0,1,1,0,1.34.67.67,0,0,1,0-1.34Z" style="fill:#c7c7c7"></path><path d="M392.63,335.73a.67.67,0,1,1,0,1.34.67.67,0,0,1,0-1.34Z" style="fill:#c7c7c7"></path><path d="M394.7,335.73a.67.67,0,1,1,0,1.34.67.67,0,0,1,0-1.34Z" style="fill:#c7c7c7"></path></g></svg>
