<svg xmlns="http://www.w3.org/2000/svg" viewBox="0 0 500 500"><g id="freepik--background-complete--inject-66"><rect y="382.4" width="500" height="0.25" style="fill:#e0e0e0"></rect><rect x="412.83" y="388.83" width="32.75" height="0.25" style="fill:#e0e0e0"></rect><rect x="289.35" y="394.26" width="40.92" height="0.25" style="fill:#e0e0e0"></rect><rect x="336.4" y="394.26" width="9.48" height="0.25" style="fill:#e0e0e0"></rect><rect x="93.17" y="391.39" width="38.5" height="0.25" style="fill:#e0e0e0"></rect><rect x="174.17" y="391.39" width="34.33" height="0.25" style="fill:#e0e0e0"></rect><rect x="368.23" y="388.83" width="34.92" height="0.25" style="fill:#e0e0e0"></rect><rect x="51.65" y="391.39" width="33.35" height="0.25" style="fill:#e0e0e0"></rect><path d="M237,337.8H43.91a5.71,5.71,0,0,1-5.7-5.71V60.66A5.71,5.71,0,0,1,43.91,55H237a5.71,5.71,0,0,1,5.71,5.71V332.09A5.71,5.71,0,0,1,237,337.8ZM43.91,55.2a5.46,5.46,0,0,0-5.45,5.46V332.09a5.46,5.46,0,0,0,5.45,5.46H237a5.47,5.47,0,0,0,5.46-5.46V60.66A5.47,5.47,0,0,0,237,55.2Z" style="fill:#e0e0e0"></path><path d="M453.31,337.8H260.21a5.72,5.72,0,0,1-5.71-5.71V60.66A5.72,5.72,0,0,1,260.21,55h193.1A5.71,5.71,0,0,1,459,60.66V332.09A5.71,5.71,0,0,1,453.31,337.8ZM260.21,55.2a5.47,5.47,0,0,0-5.46,5.46V332.09a5.47,5.47,0,0,0,5.46,5.46h193.1a5.47,5.47,0,0,0,5.46-5.46V60.66a5.47,5.47,0,0,0-5.46-5.46Z" style="fill:#e0e0e0"></path><path d="M152.4,143.29l20.18-19.91-4.21-8.18h0c.37-.81.72-1.63,1-2.47h0l8.8-2.68.2-28.36-8.77-2.81h0c-.32-.83-.65-1.66-1-2.48L173,68.26l-19.9-20.19-8.19,4.22h0c-.82-.38-1.64-.72-2.48-1l-2.68-8.8-28.35-.2L108.55,51c-.84.31-1.67.64-2.49,1h0l-8.13-4.33L77.74,67.6,82,75.79c-.37.81-.72,1.64-1,2.47L72.11,81l-.2,28.35,8.77,2.81h0c.31.84.64,1.67,1,2.49h0l-4.33,8.12,19.91,20.19,8.19-4.21c.81.37,1.64.72,2.47,1h0l2.69,8.81,28.35.19,2.81-8.77c.84-.31,1.67-.64,2.49-1ZM140,110.51a21.1,21.1,0,1,1,.21-29.84A21.09,21.09,0,0,1,140,110.51Z" style="fill:#f0f0f0"></path><path d="M75.73,196,89,183l-2.76-5.37h0c.24-.54.47-1.08.68-1.63h0l5.79-1.76.13-18.62-5.76-1.84h0c-.21-.55-.43-1.1-.67-1.64l2.84-5.33L76.16,133.5l-5.37,2.77h0c-.54-.25-1.08-.47-1.63-.69L67.4,129.8l-18.62-.13-1.85,5.76c-.55.2-1.09.42-1.63.66h0L40,133.25,26.71,146.32l2.76,5.38c-.24.53-.47,1.08-.68,1.62L23,155.09l-.12,18.62,5.75,1.84h0c.21.55.43,1.1.67,1.64h0l-2.84,5.33,13.07,13.26L44.9,193c.54.25,1.08.47,1.63.69h0l1.76,5.78,18.62.13,1.85-5.76c.55-.21,1.09-.43,1.63-.66ZM67.58,174.5a13.86,13.86,0,1,1,.13-19.59A13.85,13.85,0,0,1,67.58,174.5Z" style="fill:#e0e0e0"></path><path d="M460.72,361.71l9.63-9.5-2-3.9h0c.18-.39.34-.78.5-1.18h0l4.2-1.28.09-13.52L469,331h0c-.15-.4-.31-.79-.48-1.19l2.06-3.87L461,316.3l-3.91,2h0c-.39-.18-.78-.34-1.18-.49l-1.28-4.2-13.52-.1-1.34,4.18c-.4.15-.79.31-1.18.48h0l-3.88-2.07-9.62,9.49,2,3.91c-.18.39-.35.78-.5,1.18l-4.2,1.28-.09,13.52,4.18,1.34h0c.15.4.3.79.48,1.18h0l-2.07,3.87,9.5,9.63,3.9-2c.39.18.78.34,1.18.49h0l1.28,4.2,13.52.1,1.34-4.19c.4-.14.8-.3,1.19-.48Zm-5.92-15.63a10.06,10.06,0,1,1,.1-14.23A10.06,10.06,0,0,1,454.8,346.08Z" style="fill:#f0f0f0"></path><path d="M342.59,346.88H48.65a6.34,6.34,0,0,1-6.34-6.34V119.85a6.35,6.35,0,0,1,6.34-6.34H342.59a6.35,6.35,0,0,1,6.34,6.34V340.54A6.34,6.34,0,0,1,342.59,346.88ZM48.65,114a5.85,5.85,0,0,0-5.84,5.84V340.54a5.85,5.85,0,0,0,5.84,5.84H342.59a5.85,5.85,0,0,0,5.84-5.84V119.85a5.85,5.85,0,0,0-5.84-5.84Z" style="fill:#e0e0e0"></path><path d="M55.92,125.17a3.49,3.49,0,1,1,3.49-3.49A3.49,3.49,0,0,1,55.92,125.17Zm0-6.48a3,3,0,1,0,3,3A3,3,0,0,0,55.92,118.69Z" style="fill:#e0e0e0"></path><path d="M67.4,125.17a3.49,3.49,0,1,1,3.49-3.49A3.49,3.49,0,0,1,67.4,125.17Zm0-6.48a3,3,0,1,0,3,3A3,3,0,0,0,67.4,118.69Z" style="fill:#e0e0e0"></path><path d="M78.88,125.17a3.49,3.49,0,1,1,3.49-3.49A3.49,3.49,0,0,1,78.88,125.17Zm0-6.48a3,3,0,1,0,3,3A3,3,0,0,0,78.88,118.69Z" style="fill:#e0e0e0"></path><rect x="159.3" y="71.53" width="306.12" height="232.87" rx="6.09" style="fill:#e0e0e0"></rect><path d="M459.33,305.4H165.39a7.1,7.1,0,0,1-7.09-7.09V77.62a7.1,7.1,0,0,1,7.09-7.09H459.33a7.1,7.1,0,0,1,7.09,7.09V298.31A7.1,7.1,0,0,1,459.33,305.4ZM165.39,72.53a5.1,5.1,0,0,0-5.09,5.09V298.31a5.1,5.1,0,0,0,5.09,5.09H459.33a5.1,5.1,0,0,0,5.09-5.09V77.62a5.09,5.09,0,0,0-5.09-5.09Z" style="fill:#e0e0e0"></path><path d="M159.3,87.28v211a6.11,6.11,0,0,0,6.09,6.09H459.33a6.11,6.11,0,0,0,6.09-6.09v-211Z" style="fill:#f0f0f0"></path><rect x="160.43" y="95.38" width="303.87" height="200.92" style="fill:#fff"></rect><path d="M453.55,277.91H171.18a.09.09,0,0,1-.1-.1V108.4a.1.1,0,0,1,.1-.1H453.55a.11.11,0,0,1,.1.1V277.81A.1.1,0,0,1,453.55,277.91Zm-282.27-.2H453.45V108.51H171.28Z" style="fill:#e6e6e6"></path><path d="M172.66,83.09a3.64,3.64,0,1,1,3.65-3.64A3.64,3.64,0,0,1,172.66,83.09Zm0-6.47a2.83,2.83,0,1,0,2.84,2.83A2.83,2.83,0,0,0,172.66,76.62Z" style="fill:#fff"></path><path d="M184.14,83.09a3.64,3.64,0,1,1,3.65-3.64A3.64,3.64,0,0,1,184.14,83.09Zm0-6.47A2.83,2.83,0,1,0,187,79.45,2.83,2.83,0,0,0,184.14,76.62Z" style="fill:#fff"></path><path d="M195.62,83.09a3.64,3.64,0,1,1,3.65-3.64A3.64,3.64,0,0,1,195.62,83.09Zm0-6.47a2.83,2.83,0,1,0,2.84,2.83A2.83,2.83,0,0,0,195.62,76.62Z" style="fill:#fff"></path><rect x="159.3" y="86.87" width="306.12" height="0.81" style="fill:#e0e0e0"></rect><rect x="298.12" y="115.33" width="140.04" height="142.73" transform="translate(736.28 373.4) rotate(180)" style="fill:#f0f0f0"></rect><rect x="178.11" y="115.33" width="92.46" height="46.43" transform="translate(448.67 277.1) rotate(180)" style="fill:#f0f0f0"></rect><rect x="178.11" y="179.13" width="92.46" height="117.17" transform="translate(448.67 475.43) rotate(180)" style="fill:#f0f0f0"></rect></g><g id="freepik--Shadow--inject-66"><ellipse cx="250" cy="416.24" rx="193.89" ry="11.32" style="fill:#f5f5f5"></ellipse></g><g id="freepik--Window--inject-66"><path d="M429.39,96.79H70.62A9.65,9.65,0,0,0,61,106.4V345.86a9.64,9.64,0,0,0,9.62,9.61H429.39a9.64,9.64,0,0,0,9.61-9.61V106.4A9.65,9.65,0,0,0,429.39,96.79Z" style="fill:#407BFF"></path><path d="M429.39,96.79H70.62A9.65,9.65,0,0,0,61,106.4V345.86a9.64,9.64,0,0,0,9.62,9.61H429.39a9.64,9.64,0,0,0,9.61-9.61V106.4A9.65,9.65,0,0,0,429.39,96.79Z" style="fill:#fff;opacity:0.30000000000000004"></path><path d="M132.44,112.83H81.66a3.5,3.5,0,0,1,0-7h50.78a3.5,3.5,0,0,1,0,7Zm-50.78-6a2.5,2.5,0,0,0,0,5h50.78a2.5,2.5,0,0,0,0-5Z" style="fill:#fafafa"></path><path d="M148.92,112.83h-3.39a3.5,3.5,0,0,1,0-7h3.39a3.5,3.5,0,0,1,0,7Zm-3.39-6a2.5,2.5,0,0,0,0,5h3.39a2.5,2.5,0,0,0,0-5Z" style="fill:#fafafa"></path><path d="M163.09,112.83H159.7a3.5,3.5,0,0,1,0-7h3.39a3.5,3.5,0,0,1,0,7Zm-3.39-6a2.5,2.5,0,0,0,0,5h3.39a2.5,2.5,0,0,0,0-5Z" style="fill:#fafafa"></path><path d="M61,121.65V345.86a9.64,9.64,0,0,0,9.62,9.61H429.39a9.64,9.64,0,0,0,9.61-9.61V121.65Z" style="fill:#407BFF"></path><path d="M61,121.65V345.86a9.64,9.64,0,0,0,9.62,9.61H429.39a9.64,9.64,0,0,0,9.61-9.61V121.65Z" style="fill:#fff;opacity:0.6000000000000001"></path><path d="M62.78,121.65V337.23a5.45,5.45,0,0,0,5.45,5.46H431.77a5.45,5.45,0,0,0,5.45-5.46V121.65Z" style="fill:#fafafa"></path><path d="M80,134.34v40H337v-40Z" style="fill:#407BFF"></path><path d="M80,134.34v40H337v-40Z" style="fill:#fff;opacity:0.9"></path><path d="M336,185.94v106.2H81V185.94H336m1-1H80v108.2H337V184.94Z" style="fill:#407BFF"></path><path d="M336,185.94v106.2H81V185.94H336m1-1H80v108.2H337V184.94Z" style="fill:#fff;opacity:0.9"></path></g></svg>